<?xml version="1.0" encoding="UTF-8" standalone="no"?>
<svg
   height="2500"
   viewBox="0.1 16.7 2472.8 2493.1319"
   width="2500"
   version="1.1"
   id="svg3"
   sodipodi:docname="blender.svg"
   inkscape:version="1.4.2 (ebf0e940d0, 2025-05-08)"
   xmlns:inkscape="http://www.inkscape.org/namespaces/inkscape"
   xmlns:sodipodi="http://sodipodi.sourceforge.net/DTD/sodipodi-0.dtd"
   xmlns="http://www.w3.org/2000/svg"
   xmlns:svg="http://www.w3.org/2000/svg">
  <defs
     id="defs3" />
  <sodipodi:namedview
     id="namedview3"
     pagecolor="#505050"
     bordercolor="#ffffff"
     borderopacity="1"
     inkscape:showpageshadow="0"
     inkscape:pageopacity="0"
     inkscape:pagecheckerboard="1"
     inkscape:deskcolor="#505050"
     inkscape:zoom="0.0984"
     inkscape:cx="1250"
     inkscape:cy="1001.0163"
     inkscape:window-width="1878"
     inkscape:window-height="1038"
     inkscape:window-x="0"
     inkscape:window-y="0"
     inkscape:window-maximized="1"
     inkscape:current-layer="svg3" />
  <path
     d="m 2006.5,1759.2364 c -98.8,100.8 -237,157.8 -386.7,158 -149.8,0.3 -288.1,-56.3 -386.9,-156.8 -48.3,-49 -83.7,-105.2 -105.7,-165.3 -21.5,-59 -29.7,-122.1 -24.2,-184.6 5.3,-61 23.3,-120.3 53,-173.9 28.9,-52.4 68.6,-99.7 117.6,-139.7 96,-78.3 218.2,-120.59997 346.2,-120.79997 128,-0.2 250.1,41.89997 346.2,119.79997 48.9,39.9 88.6,87 117.4,139.3 29.7,53.6 47.8,112.8 53.1,173.8 5.5,62.6 -2.8,125.6 -24.3,184.7 -22,60 -57.5,116.3 -105.7,165.5 z"
     fill="#ffffff"
     id="path1" />
  <path
     d="m 1300.4,1416.9364 c 4.5,-81.5 44.5,-153.4 104.7,-204.3 59.1,-50.1 138.7,-80.6 225.4,-80.6 86.8,0.1 166.3,30.6 225.4,80.6 60.2,51 100.2,122.8 104.8,204.3 4.6,83.8 -29.1,161.7 -88.2,219.4 -60.2,58.7 -146,95.6 -242,95.6 -96,0 -181.9,-36.9 -242.1,-95.6 -59,-57.7 -92.6,-135.6 -88,-219.4 z"
     fill="#005385"
     id="path2" />
  <path
     d="m 774.5,1581.9364 c 0.6,31.8 10.8,93.8 26,142.3 32.1,102.5 86.5,197.4 162.3,281 77.8,85.9 173.4,154.9 284,203.8 116.3,51.5 242.2,77.8 372.9,77.5 130.7,-0.2 256.6,-26.9 372.8,-78.8 110.5,-49.5 206.1,-118.7 283.8,-204.8 75.7,-84 130,-179 162.1,-281.5 16,-51.1 26.3,-103.8 30.5,-157.1 4,-52 2.3,-104.4 -5,-156.1 -14.4,-101.4 -49.5,-196.5 -103.5,-283.2 -49.5,-79.6 -113.1,-149.39997 -188.8,-208.19997 l 0.1,-0.1 -763.8,-586.4 c -0.6,-0.5 -1.3,-1.1 -1.9,-1.6 -50.3,-38.4 -134.5,-38.3 -189.6,0.3 -55.8,39 -62.1,103.5 -12.6,144.2 l -0.2,0.1 318.6,259.2 -971.3,1 h -1.3 c -80.2,0.1 -157.4,52.8 -172.7,119.3 -15.6,67.8 38.9,124 122.4,124.4 l -0.1,0.3 492.3,-1 L 113,1650.8364 c -1.1,0.9 -2.3,1.7 -3.3,2.5 -82.8,63.4 -109.6,169 -57.5,235.8 53,67.9 165.6,68 249.4,0.3 l 479.4,-392.3 c 0,0 -7,53 -6.5,84.8 z m 1232,177.3 c -98.8,100.8 -237,157.8 -386.7,158 -149.8,0.3 -288.1,-56.3 -386.9,-156.8 -48.3,-49 -83.7,-105.2 -105.7,-165.3 -21.5,-59 -29.7,-122.1 -24.2,-184.6 5.3,-61 23.3,-120.3 53,-173.9 28.9,-52.4 68.6,-99.7 117.6,-139.7 96,-78.3 218.2,-120.59997 346.2,-120.79997 128,-0.2 250.1,41.89997 346.2,119.79997 48.9,39.9 88.6,87 117.4,139.3 29.7,53.6 47.8,112.8 53.1,173.8 5.5,62.6 -2.8,125.6 -24.3,184.7 -22,60 -57.5,116.3 -105.7,165.5 z"
     fill="#ff7021"
     id="path3" />
</svg>
