<svg height="32" viewBox="0 0 32 32" width="32" xmlns="http://www.w3.org/2000/svg" xmlns:xlink="http://www.w3.org/1999/xlink"><linearGradient id="a" gradientUnits="userSpaceOnUse" x1="4" x2="28" y1="31" y2="1"><stop offset="0" stop-color="#c10018"/><stop offset="1" stop-color="#ff5a96"/></linearGradient><g fill-rule="evenodd"><path d="m7 0c-2.216 0-4 1.784-4 4v24c0 2.216 1.784 4 4 4h18c2.216 0 4-1.784 4-4v-16l-12-12zm13 0 9 9v-9z" fill="url(#a)" stroke-linecap="square"/><g stroke-linecap="square"><path d="m3 27v1c0 2.216 1.784 4 4 4h18c2.216 0 4-1.784 4-4v-1c0 2.216-1.784 4-4 4h-18c-2.216 0-4-1.784-4-4z" fill-opacity=".19862"/><path d="m20 0h1.4l7.6 7.6v1.4z" fill-opacity=".20149"/></g><g fill="#fafafa"><path d="m15.191 13-3.6914 7.3828-1.6914-3.3828h-1.3086a.5.5 0 0 0 -.5.5.5.5 0 0 0 .5.5h.69141l2.3086 4.6172 4.3086-8.6172h7.6914a.5.5 0 0 0 .5-.5.5.5 0 0 0 -.5-.5z" stroke-linecap="round"/><rect height="1" ry=".5" width="4" x="8" y="24"/><rect height="1" ry=".5" width="4" x="14" y="24"/><rect height="1" ry=".5" width="4" x="20" y="24"/></g><path d="m17.889 16.006a1 1 0 0 0 -.5957.28711 1 1 0 0 0 0 1.4141l1.293 1.293-1.293 1.293a1 1 0 0 0 0 1.4141 1 1 0 0 0 1.4141 0l1.293-1.293 1.293 1.293a1 1 0 0 0 1.4141 0 1 1 0 0 0 0-1.4141l-1.293-1.293 1.293-1.293a1 1 0 0 0 0-1.4141 1 1 0 0 0 -1.4141 0l-1.293 1.293-1.293-1.293a1 1 0 0 0 -.81836-.28711z" fill="#fda8b3" stroke-linecap="round"/></g></svg>