<svg height="32" viewBox="0 0 32 32" width="32" xmlns="http://www.w3.org/2000/svg" xmlns:xlink="http://www.w3.org/1999/xlink"><linearGradient id="a" gradientUnits="userSpaceOnUse" x1="4" x2="28" y1="31" y2="1"><stop offset="0" stop-color="#7324a9"/><stop offset="1" stop-color="#fa51fd"/></linearGradient><g fill-rule="evenodd"><path d="m7 0c-2.216 0-4 1.784-4 4v24c0 2.216 1.784 4 4 4h18c2.216 0 4-1.784 4-4v-16l-12-12zm13 0 9 9v-9z" fill="url(#a)" stroke-linecap="square"/><g stroke-linecap="square"><path d="m3 27v1c0 2.216 1.784 4 4 4h18c2.216 0 4-1.784 4-4v-1c0 2.216-1.784 4-4 4h-18c-2.216 0-4-1.784-4-4z" fill-opacity=".19862"/><path d="m20 0h1.4l7.6 7.6v1.4z" fill-opacity=".20149"/></g><path d="m12 13a4 1 0 0 0 -4 1v1a4 1 0 0 0 4 1 4 1 0 0 0 4-1v-1a4 1 0 0 0 -4-1zm-4 3v2a4 1 0 0 0 4 1 4 1 0 0 0 4-1v-2a4 1 0 0 1 -4 1 4 1 0 0 1 -4-1zm0 3v2a4 1 0 0 0 4 1 4 1 0 0 0 4-1v-2a4 1 0 0 1 -4 1 4 1 0 0 1 -4-1zm0 3v2a4 1 0 0 0 4 1 4 1 0 0 0 4-1v-2a4 1 0 0 1 -4 1 4 1 0 0 1 -4-1z" fill="#fa9bfd"/><path d="m18 15c-.554 0-1 .446-1 1v8c0 .554.446 1 1 1h5c.554 0 1-.446 1-1v-8c0-.554-.446-1-1-1zm0 1h2v2h-2zm3 0h2v2h-2zm-3 3h2v2h-2zm3 0h2v2h-2zm-3 3h2v2h-2zm3 0h2v2h-2z" fill="#fafafa"/></g></svg>