<svg height="32" viewBox="0 0 32 32" width="32" xmlns="http://www.w3.org/2000/svg" xmlns:xlink="http://www.w3.org/1999/xlink"><linearGradient id="a" gradientUnits="userSpaceOnUse" x1="4" x2="28" y1="31" y2="1"><stop offset="0" stop-color="#cb6d30"/><stop offset="1" stop-color="#fffb57"/></linearGradient><g fill-rule="evenodd"><path d="m7 0c-2.216 0-4 1.784-4 4v24c0 2.216 1.784 4 4 4h18c2.216 0 4-1.784 4-4v-16l-12-12zm13 0 9 9v-9z" fill="url(#a)" stroke-linecap="square"/><g stroke-linecap="square"><path d="m3 27v1c0 2.216 1.784 4 4 4h18c2.216 0 4-1.784 4-4v-1c0 2.216-1.784 4-4 4h-18c-2.216 0-4-1.784-4-4z" fill-opacity=".19862"/><path d="m20 0h1.4l7.6 7.6v1.4z" fill-opacity=".20149"/></g><circle cx="12" cy="17" fill="#fafafa" r="4"/><path d="m18 15c-.554 0-1 .446-1 1v5c0 .554.446 1 1 1h5c.554 0 1-.446 1-1v-5c0-.554-.446-1-1-1zm0 1h5v5h-5z" fill="#fafafa"/><path d="m14.5 16.866 4.1962 7.268a.57735.57735 120 0 1 -.5.86602h-8.3923a.57735.57735 60 0 1 -.5-.86603l4.1962-7.2679a.57735.57735.00000154 0 1 1 0z" fill="#f9e186" transform="translate(.50015)"/></g></svg>