<?xml version="1.0" encoding="UTF-8" standalone="no"?>
<!-- Created with Inkscape (http://www.inkscape.org/) -->

<svg
   width="200mm"
   height="200mm"
   viewBox="0 0 200 200"
   version="1.1"
   id="svg1"
   xml:space="preserve"
   inkscape:version="1.4.2 (ebf0e940d0, 2025-05-08)"
   sodipodi:docname="more.svg"
   xmlns:inkscape="http://www.inkscape.org/namespaces/inkscape"
   xmlns:sodipodi="http://sodipodi.sourceforge.net/DTD/sodipodi-0.dtd"
   xmlns="http://www.w3.org/2000/svg"
   xmlns:svg="http://www.w3.org/2000/svg"><sodipodi:namedview
     id="namedview1"
     pagecolor="#505050"
     bordercolor="#ffffff"
     borderopacity="1"
     inkscape:showpageshadow="0"
     inkscape:pageopacity="0"
     inkscape:pagecheckerboard="1"
     inkscape:deskcolor="#505050"
     inkscape:document-units="mm"
     inkscape:zoom="0.30994048"
     inkscape:cx="325.86902"
     inkscape:cy="372.6522"
     inkscape:window-width="1878"
     inkscape:window-height="1038"
     inkscape:window-x="0"
     inkscape:window-y="0"
     inkscape:window-maximized="1"
     inkscape:current-layer="layer1" /><defs
     id="defs1" /><g
     inkscape:label="Ebene 1"
     inkscape:groupmode="layer"
     id="layer1"><path
       id="path1"
       style="fill:#a9a9a9;stroke-width:0.264583"
       d="M 99.878141 0 A 99.878052 99.878044 0 0 0 0 99.878141 A 99.878052 99.878044 0 0 0 99.878141 199.75628 A 99.878052 99.878044 0 0 0 199.75628 99.878141 A 99.878052 99.878044 0 0 0 99.878141 0 z M 149.17694 83.658459 A 14.72561 16.219513 0 0 1 163.90266 99.878141 A 14.72561 16.219513 0 0 1 149.17694 116.09782 A 14.72561 16.219513 0 0 1 134.45122 99.878141 A 14.72561 16.219513 0 0 1 149.17694 83.658459 z M 49.2988 84.512154 A 16.859756 16.219513 0 0 1 66.158752 100.73184 A 16.859756 16.219513 0 0 1 49.2988 116.951 A 16.859756 16.219513 0 0 1 32.438847 100.73184 A 16.859756 16.219513 0 0 1 49.2988 84.512154 z M 100.94526 85.792696 A 15.579268 14.939025 0 0 1 116.52415 100.73184 A 15.579268 14.939025 0 0 1 100.94526 115.67098 A 15.579268 14.939025 0 0 1 85.365849 100.73184 A 15.579268 14.939025 0 0 1 100.94526 85.792696 z " /></g></svg>
