<?xml version="1.0" encoding="UTF-8" standalone="no"?>
<svg
   id="image-2"
   fill="none"
   viewBox="4 2 44 44"
   version="1.1"
   sodipodi:docname="office.svg"
   width="44"
   height="44"
   inkscape:version="1.4.2 (ebf0e940d0, 2025-05-08)"
   xmlns:inkscape="http://www.inkscape.org/namespaces/inkscape"
   xmlns:sodipodi="http://sodipodi.sourceforge.net/DTD/sodipodi-0.dtd"
   xmlns="http://www.w3.org/2000/svg"
   xmlns:svg="http://www.w3.org/2000/svg"
   xmlns:rdf="http://www.w3.org/1999/02/22-rdf-syntax-ns#"
   xmlns:cc="http://creativecommons.org/ns#"
   xmlns:dc="http://purl.org/dc/elements/1.1/">
  <sodipodi:namedview
     id="namedview23"
     pagecolor="#505050"
     bordercolor="#ffffff"
     borderopacity="1"
     inkscape:showpageshadow="0"
     inkscape:pageopacity="0"
     inkscape:pagecheckerboard="1"
     inkscape:deskcolor="#505050"
     inkscape:zoom="4.3487067"
     inkscape:cx="14.946973"
     inkscape:cy="44.955895"
     inkscape:window-width="1920"
     inkscape:window-height="1080"
     inkscape:window-x="0"
     inkscape:window-y="0"
     inkscape:window-maximized="1"
     inkscape:current-layer="image-2" />
  <title
     id="title1">Microsoft 365 logo (2022)</title>
  <path
     d="m 22.0842,3.02588 -0.2247,0.13591 c -0.3574,0.2162 -0.6941,0.45793 -1.0083,0.72206 L 21.4993,3.42798 H 27 L 28,11 l -5,5 -5,3.4754 v 4.0075 c 0,2.799 1.4629,5.3945 3.8574,6.8439 L 27.1211,33.5129 16,40.0002 H 13.8551 L 9.85737,37.5804 C 7.46286,36.131 6,33.5355 6,30.7365 V 17.2606 C 6,14.4607 7.46379,11.8645 9.85952,10.4154 L 21.8595,3.15687 c 0.0744,-0.04498 0.1493,-0.08864 0.2247,-0.13099 z"
     fill="url(#paint0_radial_2994_8373)"
     id="path1"
     style="fill:url(#paint0_radial_2994_8373)" />
  <path
     d="m 22.0842,3.02588 -0.2247,0.13591 c -0.3574,0.2162 -0.6941,0.45793 -1.0083,0.72206 L 21.4993,3.42798 H 27 L 28,11 l -5,5 -5,3.4754 v 4.0075 c 0,2.799 1.4629,5.3945 3.8574,6.8439 L 27.1211,33.5129 16,40.0002 H 13.8551 L 9.85737,37.5804 C 7.46286,36.131 6,33.5355 6,30.7365 V 17.2606 C 6,14.4607 7.46379,11.8645 9.85952,10.4154 L 21.8595,3.15687 c 0.0744,-0.04498 0.1493,-0.08864 0.2247,-0.13099 z"
     fill="url(#paint1_linear_2994_8373)"
     id="path2"
     style="fill:url(#paint1_linear_2994_8373)" />
  <path
     d="m 34.0005,19 v 4.4803 c 0,2.799 -1.4629,5.3945 -3.8574,6.8439 l -12,7.2636 c -2.4548,1.4859 -5.5091,1.5395 -8.0071,0.1609 l 11.7218,7.0953 c 2.5466,1.5415 5.7386,1.5415 8.2853,0 l 12,-7.2637 c 2.3945,-1.4494 3.8573,-4.0449 3.8573,-6.8439 V 27.5 l -1,-1.5 z"
     fill="url(#paint2_radial_2994_8373)"
     id="path3"
     style="fill:url(#paint2_radial_2994_8373)" />
  <path
     d="m 34.0005,19 v 4.4803 c 0,2.799 -1.4629,5.3945 -3.8574,6.8439 l -12,7.2636 c -2.4548,1.4859 -5.5091,1.5395 -8.0071,0.1609 l 11.7218,7.0953 c 2.5466,1.5415 5.7386,1.5415 8.2853,0 l 12,-7.2637 c 2.3945,-1.4494 3.8573,-4.0449 3.8573,-6.8439 V 27.5 l -1,-1.5 z"
     fill="url(#paint3_linear_2994_8373)"
     id="path4"
     style="fill:url(#paint3_linear_2994_8373)"
     sodipodi:nodetypes="csccccccsccc" />
  <path
     d="m 42.1405,10.4153 -12,-7.25852 C 27.6738,1.66471 24.6021,1.61849 22.0979,3.01811 l -0.2384,0.1442 C 19.4638,4.61143 18,7.20757 18,10.0075 v 9.4839 l 3.8595,-2.3346 c 2.5456,-1.5397 5.7354,-1.5397 8.281,0 l 12,7.2585 c 2.3208,1.4039 3.7671,3.8841 3.8552,6.5832 C 45.9986,30.9113 46,30.824 46,30.7364 V 17.2605 c 0,-2.7999 -1.4638,-5.3961 -3.8595,-6.8452 z"
     fill="url(#paint4_radial_2994_8373)"
     id="path5"
     style="fill:url(#paint4_radial_2994_8373)" />
  <path
     d="m 42.1405,10.4153 -12,-7.25852 C 27.6738,1.66471 24.6021,1.61849 22.0979,3.01811 l -0.2384,0.1442 C 19.4638,4.61143 18,7.20757 18,10.0075 v 9.4839 l 3.8595,-2.3346 c 2.5456,-1.5397 5.7354,-1.5397 8.281,0 l 12,7.2585 c 2.3208,1.4039 3.7671,3.8841 3.8552,6.5832 C 45.9986,30.9113 46,30.824 46,30.7364 V 17.2605 c 0,-2.7999 -1.4638,-5.3961 -3.8595,-6.8452 z"
     fill="url(#paint5_linear_2994_8373)"
     id="path6"
     style="fill:url(#paint5_linear_2994_8373)"
     sodipodi:nodetypes="ccccscccccssc" />
  <path
     d="M 4.00428,30.9984 Z"
     fill="url(#paint6_radial_2994_8373)"
     id="path7"
     style="fill:url(#paint6_radial_2994_8373)" />
  <path
     d="M 4.00428,30.9984 Z"
     fill="url(#paint7_linear_2994_8373)"
     id="path8"
     style="fill:url(#paint7_linear_2994_8373)" />
  <defs
     id="defs23">
    <radialGradient
       id="paint0_radial_2994_8373"
       cx="0"
       cy="0"
       r="1"
       gradientUnits="userSpaceOnUse"
       gradientTransform="matrix(-11.700186,31.247009,-54.50117,-20.407516,19.4186,10.6383)">
      <stop
         offset="0.06441"
         stop-color="#AE7FE2"
         id="stop8" />
      <stop
         offset="1"
         stop-color="#0078D4"
         id="stop9" />
    </radialGradient>
    <linearGradient
       id="paint1_linear_2994_8373"
       x1="17.5119"
       y1="37.8685"
       x2="12.7513"
       y2="29.634701"
       gradientUnits="userSpaceOnUse"
       gradientTransform="translate(2)">
      <stop
         offset="0"
         stop-color="#114A8B"
         id="stop10" />
      <stop
         offset="1"
         stop-color="#0078D4"
         stop-opacity="0"
         id="stop11" />
    </linearGradient>
    <radialGradient
       id="paint2_radial_2994_8373"
       cx="0"
       cy="0"
       r="1"
       gradientUnits="userSpaceOnUse"
       gradientTransform="matrix(30.719797,-4.5183204,2.9846529,20.29248,12.4304,36.3511)">
      <stop
         offset="0.133928"
         stop-color="#D59DFF"
         id="stop12" />
      <stop
         offset="1"
         stop-color="#5E438F"
         id="stop13" />
    </radialGradient>
    <linearGradient
       id="paint3_linear_2994_8373"
       x1="40.356602"
       y1="25.376801"
       x2="35.255199"
       y2="32.691601"
       gradientUnits="userSpaceOnUse"
       gradientTransform="translate(2.0005)">
      <stop
         offset="0"
         stop-color="#493474"
         id="stop14" />
      <stop
         offset="1"
         stop-color="#8C66BA"
         stop-opacity="0"
         id="stop15" />
    </linearGradient>
    <radialGradient
       id="paint4_radial_2994_8373"
       cx="0"
       cy="0"
       r="1"
       gradientUnits="userSpaceOnUse"
       gradientTransform="matrix(-24.158302,-6.1255536,10.311796,-40.668239,43.0552,26.504)">
      <stop
         offset="0.0584996"
         stop-color="#50E6FF"
         id="stop16" />
      <stop
         offset="1"
         stop-color="#436DCD"
         id="stop17" />
    </radialGradient>
    <linearGradient
       id="paint5_linear_2994_8373"
       x1="16.9758"
       y1="3.05655"
       x2="24.486799"
       y2="3.05655"
       gradientUnits="userSpaceOnUse"
       gradientTransform="translate(2)">
      <stop
         offset="0"
         stop-color="#2D3F80"
         id="stop18" />
      <stop
         offset="1"
         stop-color="#436DCD"
         stop-opacity="0"
         id="stop19" />
    </linearGradient>
    <radialGradient
       id="paint6_radial_2994_8373"
       cx="0"
       cy="0"
       r="1"
       gradientUnits="userSpaceOnUse"
       gradientTransform="matrix(-24.158302,-6.1255536,10.311796,-40.668239,41.0552,26.504)">
      <stop
         offset="0.0584996"
         stop-color="#50E6FF"
         id="stop20" />
      <stop
         offset="1"
         stop-color="#436DCD"
         id="stop21" />
    </radialGradient>
    <linearGradient
       id="paint7_linear_2994_8373"
       x1="16.9758"
       y1="3.05655"
       x2="24.486799"
       y2="3.05655"
       gradientUnits="userSpaceOnUse">
      <stop
         offset="0"
         stop-color="#2D3F80"
         id="stop22" />
      <stop
         offset="1"
         stop-color="#436DCD"
         stop-opacity="0"
         id="stop23" />
    </linearGradient>
  </defs>
  <metadata
     id="metadata23">
    <rdf:RDF>
      <cc:Work
         rdf:about="">
        <dc:title>Microsoft 365 logo (2022)</dc:title>
      </cc:Work>
    </rdf:RDF>
  </metadata>
</svg>
