<?xml version="1.0" encoding="UTF-8" standalone="no"?>
<!-- Created with Inkscape (http://www.inkscape.org/) -->

<svg
   width="200mm"
   height="200mm"
   viewBox="0 0 200 200"
   version="1.1"
   id="svg1"
   xml:space="preserve"
   inkscape:version="1.4.2 (ebf0e940d0, 2025-05-08)"
   sodipodi:docname="shuffle.svg"
   xmlns:inkscape="http://www.inkscape.org/namespaces/inkscape"
   xmlns:sodipodi="http://sodipodi.sourceforge.net/DTD/sodipodi-0.dtd"
   xmlns="http://www.w3.org/2000/svg"
   xmlns:svg="http://www.w3.org/2000/svg"><sodipodi:namedview
     id="namedview1"
     pagecolor="#505050"
     bordercolor="#ffffff"
     borderopacity="1"
     inkscape:showpageshadow="0"
     inkscape:pageopacity="0"
     inkscape:pagecheckerboard="1"
     inkscape:deskcolor="#505050"
     inkscape:document-units="mm"
     inkscape:zoom="0.77415123"
     inkscape:cx="300.97478"
     inkscape:cy="492.79777"
     inkscape:window-width="1878"
     inkscape:window-height="1038"
     inkscape:window-x="0"
     inkscape:window-y="0"
     inkscape:window-maximized="1"
     inkscape:current-layer="layer1" /><defs
     id="defs1" /><g
     inkscape:label="Ebene 1"
     inkscape:groupmode="layer"
     id="layer1"><path
       style="fill:#ebcb8b;stroke-width:0.264583;fill-opacity:1"
       d="m 11.791139,38.449366 h 24.094936 c 0,0 14.439873,1.196202 21.95886,7.006331 7.518988,5.810125 11.278481,9.227846 11.278481,9.227846 0,0 8.031647,8.458861 1.025316,17.174051 -7.006328,8.71519 -17.344935,2.221518 -17.344935,2.221518 l -5.38291,-4.870251 c 0,0 -3.161393,-2.734178 -6.237343,-4.015825 -3.075948,-1.281644 -5.895571,-1.367089 -5.895571,-1.367089 L 10.936709,63.569619 c 0,0 -10.55909215,-1.454598 -10.76582293,-11.791138 C -0.08544304,38.962024 11.791139,38.449366 11.791139,38.449366 Z"
       id="path1"
       sodipodi:nodetypes="ccscsccsccsc" /><path
       style="fill:#ebcb8b;fill-opacity:1;stroke-width:0.264583"
       d="m 10.936709,136.02531 25.291139,0.17089 c 0,0 5.810125,-0.68354 10.082278,-4.10127 4.272153,-3.41772 8.373417,-8.5443 8.373417,-8.5443 L 96.550632,58.613923 c 0,0 7.006328,-8.20253 14.525318,-12.474683 7.51898,-4.272151 14.86709,-6.322785 14.86709,-6.322785 l 6.32278,-1.025316 25.12025,-0.341773 -5.98101,-6.493671 c 0,0 -5.87378,-8.963541 2.22152,-15.550632 8.35884,-6.8015339 16.57595,-0.170886 16.57595,-0.170886 l 24.60759,24.607594 c 0,0 4.9557,3.417723 5.12659,10.082278 0.17088,6.664558 -4.44304,9.911392 -4.44304,9.911392 l -25.12025,25.120253 c 0,0 -11.1076,5.126583 -17.94304,-1.367089 -6.83544,-6.493671 -0.34178,-15.892404 -0.34178,-15.892404 l 4.61393,-4.784809 h -21.87342 c 0,0 -7.68987,0.854429 -10.42405,2.905064 -2.73417,2.050632 -8.5443,8.71519 -8.5443,8.71519 L 100.48101,99.113923 76.044302,136.87975 c 0,0 -11.150813,13.41927 -19.822784,18.11392 -10.017999,5.42333 -18.709509,5.71861 -18.709509,5.71861 L 9.56962,160.46202 c 0,0 -10.32707399,-1.71073 -10.08227822,-12.47468 C -0.25222591,136.53583 10.936709,136.02531 10.936709,136.02531 Z"
       id="path2"
       sodipodi:nodetypes="ccsccsccccsccsccscccscccsccsc" /><path
       style="fill:#ebcb8b;stroke-width:0.264583;fill-opacity:1"
       d="m 156.87342,136.11076 -5.12659,-5.38291 c 0,0 -5.89557,-10.08228 2.5633,-16.91772 8.45885,-6.83545 16.06329,0.25632 16.06329,0.25632 l 25.0348,24.86393 c 0,0 4.52849,3.50316 4.52849,9.99683 0,6.49367 -3.24684,8.37342 -3.24684,8.37342 l -25.0348,25.46202 c 0,0 -10.87525,7.38283 -17.08862,1.19621 -9.1685,-9.12903 -2.90506,-17.08861 -2.90506,-17.08861 l 5.38291,-5.29747 -25.8038,-0.17088 c 0,0 -5.55379,-0.51266 -13.84177,-4.10127 -8.28797,-3.58861 -12.21835,-7.86076 -12.21835,-7.86076 l -7.006331,-7.17721 c 0,0 -5.455061,-9.40572 2.392411,-16.40507 7.45131,-6.646 16.31962,0.25633 16.31962,0.25633 0,0 2.64872,3.67405 8.03164,6.83545 4.88047,2.86631 8.28797,3.41772 11.62025,3.50316 3.33228,0.0854 20.33545,-0.34177 20.33545,-0.34177 z"
       id="path3"
       sodipodi:nodetypes="ccsccsccscccsccscscc" /></g></svg>
