<?xml version="1.0" encoding="UTF-8" standalone="no"?>
<svg
   viewBox="0 0 157 157"
   height="157"
   width="157"
   xml:space="preserve"
   id="svg2"
   version="1.1"
   sodipodi:docname="stackoverflow.svg"
   inkscape:version="1.4.2 (ebf0e940d0, 2025-05-08)"
   xmlns:inkscape="http://www.inkscape.org/namespaces/inkscape"
   xmlns:sodipodi="http://sodipodi.sourceforge.net/DTD/sodipodi-0.dtd"
   xmlns="http://www.w3.org/2000/svg"
   xmlns:svg="http://www.w3.org/2000/svg"
   xmlns:rdf="http://www.w3.org/1999/02/22-rdf-syntax-ns#"
   xmlns:cc="http://creativecommons.org/ns#"
   xmlns:dc="http://purl.org/dc/elements/1.1/"><sodipodi:namedview
     id="namedview1"
     pagecolor="#505050"
     bordercolor="#ffffff"
     borderopacity="1"
     inkscape:showpageshadow="0"
     inkscape:pageopacity="0"
     inkscape:pagecheckerboard="1"
     inkscape:deskcolor="#505050"
     inkscape:zoom="1.2298155"
     inkscape:cx="239.06024"
     inkscape:cy="0.40656504"
     inkscape:window-width="1920"
     inkscape:window-height="1080"
     inkscape:window-x="0"
     inkscape:window-y="0"
     inkscape:window-maximized="1"
     inkscape:current-layer="g12" /><metadata
     id="metadata8"><rdf:RDF><cc:Work
         rdf:about=""><dc:format>image/svg+xml</dc:format><dc:type
           rdf:resource="http://purl.org/dc/dcmitype/StillImage" /></cc:Work></rdf:RDF></metadata><defs
     id="defs6"><clipPath
       id="clipPath20"
       clipPathUnits="userSpaceOnUse"><path
         id="path18"
         d="M 0,1178.69 V 0 h 6000.85 v 1178.69 z" /></clipPath></defs><g
     transform="matrix(1.3333333,0,0,-1.3333333,0,157.16)"
     id="g10"><g
       transform="scale(0.1)"
       id="g12"><g
         id="g14"><g
           clip-path="url(#clipPath20)"
           id="g16"><path
             id="path24"
             style="fill:#bcbbbc;fill-opacity:1;fill-rule:nonzero;stroke:none"
             d="M 919.99918,105.18 V 420.691 H 1025.1632 V 0 H 79.280185 V 420.691 H 184.44418 V 105.18 h 735.555" /><path
             id="path26"
             style="fill:#f48023;fill-opacity:1;fill-rule:nonzero;stroke:none"
             d="m 289.72518,210.359 h 525.821 v 105.164 h -525.821 z m 471.266,968.331 -84.383,-62.76 313.817,-421.914 84.38202,62.761 z m -260.832,-248.741 404.047,-336.504 67.301,80.813 -404.047,336.502 z m -131.906,-233.847 476.664,-221.993 44.398,95.332 -476.664,221.993 z m -68.086,-246.391 514.582,-108.149 21.629,102.918 -514.582,108.149 -21.629,-102.918" /></g></g></g></g></svg>
